<?xml version="1.0" encoding="UTF-8" standalone="no"?>
<!DOCTYPE svg PUBLIC "-//W3C//DTD SVG 1.1//EN" "http://www.w3.org/Graphics/SVG/1.1/DTD/svg11.dtd">
<svg width="100%" height="100%" viewBox="0 0 96 96" version="1.1" xmlns="http://www.w3.org/2000/svg" xmlns:xlink="http://www.w3.org/1999/xlink" xml:space="preserve" xmlns:serif="http://www.serif.com/" style="fill-rule:evenodd;clip-rule:evenodd;stroke-linejoin:round;stroke-miterlimit:2;">
    <g transform="matrix(4,0,0,4,3.22981e-05,-0.000213151)">
        <path d="M4.191,13.412C4.191,13.412 12.191,2.412 12.191,2.412C12.287,2.28 12.41,2.178 12.546,2.109C12.682,2.039 12.837,2 13,2C13.212,2 13.417,2.067 13.588,2.191C13.72,2.287 13.822,2.41 13.891,2.546C13.961,2.682 14,2.837 14,3C14,3 14,3.001 14,3.002C14,3.127 14,9 14,9L19,9C19.376,9 19.72,9.211 19.891,9.546C20.062,9.881 20.03,10.284 19.809,10.588L11.809,21.588C11.554,21.938 11.103,22.085 10.691,21.951C10.279,21.817 10,21.433 10,21C10,21 10,15 10,15L5,15C4.624,15 4.28,14.789 4.109,14.454C3.938,14.119 3.97,13.716 4.191,13.412ZM12,6.075C9.972,8.864 6.964,13 6.964,13L11,13C11.552,13 12,13.448 12,14L12,17.925C12,17.925 17.036,11 17.036,11L13,11C12.448,11 12,10.552 12,10L12,6.075Z"/>
    </g>
</svg>
