<?xml version="1.0" encoding="UTF-8" standalone="no"?>
<!DOCTYPE svg PUBLIC "-//W3C//DTD SVG 1.1//EN" "http://www.w3.org/Graphics/SVG/1.1/DTD/svg11.dtd">
<svg width="100%" height="100%" viewBox="0 0 96 96" version="1.1" xmlns="http://www.w3.org/2000/svg" xmlns:xlink="http://www.w3.org/1999/xlink" xml:space="preserve" xmlns:serif="http://www.serif.com/" style="fill-rule:evenodd;clip-rule:evenodd;stroke-linejoin:round;stroke-miterlimit:2;">
    <g transform="matrix(0.0156297,0,0,-0.0156297,7.98817,87.9935)">
        <path d="M1790,4671C1841,4688 1899,4689 2575,4687L3305,4685L3363,4662C3435,4633 3535,4542 3573,4471C3612,4401 3630,4305 3630,4168L3630,4050L4198,4050C4832,4050 4819,4051 4927,3981C4996,3936 5061,3858 5093,3778C5114,3727 5115,3708 5118,3345C5122,2936 5117,2883 5073,2796C5018,2688 4898,2595 4782,2571C4746,2563 4457,2560 3860,2560L2990,2560L2990,2615C2990,2646 2984,2686 2976,2704C2948,2771 2954,2770 2560,2770C2166,2770 2172,2771 2144,2704C2136,2686 2130,2646 2130,2615L2130,2560L1260,2560C663,2560 374,2563 338,2571C181,2604 45,2740 10,2900C2,2939 -1,3067 2,3340C5,3708 6,3727 27,3778C75,3896 172,3988 293,4030C347,4049 375,4050 920,4050L1490,4050L1490,4168C1490,4362 1520,4458 1608,4553C1665,4614 1718,4648 1790,4671ZM3200,4270L1920,4270L1920,4050L3200,4050L3200,4270ZM63,2446C103,2463 131,2457 200,2415C312,2347 269,2350 1247,2350L2130,2350L2130,2185C2130,1999 2139,1961 2189,1936C2234,1912 2886,1912 2931,1936C2981,1961 2990,1999 2990,2185L2990,2350L3873,2350C4850,2350 4807,2347 4920,2415C4994,2459 5013,2463 5054,2446C5124,2417 5121,2462 5118,1562C5115,759 5115,755 5093,702C5061,622 4996,544 4927,499C4811,424 5012,430 2558,430C376,430 349,430 293,450C172,492 75,584 27,702C5,755 5,759 2,1562C-1,2456 -4,2416 63,2446Z"/>
    </g>
</svg>
