<?xml version="1.0" encoding="UTF-8" standalone="no"?>
<!DOCTYPE svg PUBLIC "-//W3C//DTD SVG 1.1//EN" "http://www.w3.org/Graphics/SVG/1.1/DTD/svg11.dtd">
<svg width="100%" height="100%" viewBox="0 0 80 80" version="1.1" xmlns="http://www.w3.org/2000/svg" xmlns:xlink="http://www.w3.org/1999/xlink" xml:space="preserve" xmlns:serif="http://www.serif.com/" style="fill-rule:evenodd;clip-rule:evenodd;stroke-linejoin:round;stroke-miterlimit:2;">
    <g transform="matrix(1,0,0,1,-810,-180)">
        <g id="Artboard2" transform="matrix(0.1,0,0,0.1,709.167,180)">
            <rect x="1008.33" y="0" width="800" height="800" style="fill:none;"/>
            <clipPath id="_clip1">
                <rect x="1008.33" y="0" width="800" height="800"/>
            </clipPath>
            <g clip-path="url(#_clip1)">
                <g transform="matrix(0.156297,0,0,-0.156297,1008.21,799.935)">
                    <path d="M1790,4671C1718,4648 1665,4614 1608,4553C1520,4458 1490,4362 1490,4168L1490,4050L920,4050C375,4050 347,4049 293,4030C172,3988 75,3896 27,3778C6,3727 5,3708 2,3340C-1,3067 2,2939 10,2900C45,2740 181,2604 338,2571C374,2563 663,2560 1260,2560L2130,2560L2130,2615C2130,2646 2136,2686 2144,2704C2172,2771 2166,2770 2560,2770C2954,2770 2948,2771 2976,2704C2984,2686 2990,2646 2990,2615L2990,2560L3860,2560C4457,2560 4746,2563 4782,2571C4898,2595 5018,2688 5073,2796C5117,2883 5122,2936 5118,3345C5115,3708 5114,3727 5093,3778C5061,3858 4996,3936 4927,3981C4819,4051 4832,4050 4198,4050L3630,4050L3630,4168C3630,4305 3612,4401 3573,4471C3535,4542 3435,4633 3363,4662L3305,4685L2575,4687C1899,4689 1841,4688 1790,4671ZM3200,4270L3200,4050L1920,4050L1920,4270L3200,4270Z" style="fill:rgb(23,85,124);fill-rule:nonzero;"/>
                    <path d="M63,2446C-4,2416 -1,2456 2,1562C5,759 5,755 27,702C75,584 172,492 293,450C349,430 376,430 2558,430C5012,430 4811,424 4927,499C4996,544 5061,622 5093,702C5115,755 5115,759 5118,1562C5121,2462 5124,2417 5054,2446C5013,2463 4994,2459 4920,2415C4807,2347 4850,2350 3873,2350L2990,2350L2990,2185C2990,1999 2981,1961 2931,1936C2886,1912 2234,1912 2189,1936C2139,1961 2130,1999 2130,2185L2130,2350L1247,2350C269,2350 312,2347 200,2415C131,2457 103,2463 63,2446Z" style="fill:rgb(23,85,124);fill-rule:nonzero;"/>
                </g>
            </g>
        </g>
    </g>
</svg>
