<?xml version="1.0" encoding="UTF-8" standalone="no"?>
<!DOCTYPE svg PUBLIC "-//W3C//DTD SVG 1.1//EN" "http://www.w3.org/Graphics/SVG/1.1/DTD/svg11.dtd">
<svg width="100%" height="100%" viewBox="0 0 96 96" version="1.1" xmlns="http://www.w3.org/2000/svg" xmlns:xlink="http://www.w3.org/1999/xlink" xml:space="preserve" xmlns:serif="http://www.serif.com/" style="fill-rule:evenodd;clip-rule:evenodd;stroke-linejoin:round;stroke-miterlimit:2;">
    <g transform="matrix(4,0,0,4,5.32907e-15,5.32907e-15)">
        <path d="M8.761,17.345C8.651,17.13 8.509,16.93 8.338,16.753C6.866,15.619 6,13.861 6,12C6,8.708 8.708,6 12,6C15.292,6 18,8.708 18,12C18,13.862 17.134,15.62 15.661,16.754C15.49,16.931 15.349,17.13 15.239,17.345C15.219,17.399 15.194,17.452 15.165,17.502C14.985,17.922 14.921,18.39 14.989,18.854C14.996,18.902 15,18.951 15,19C15,20.646 13.646,22 12,22C10.354,22 9,20.646 9,19C9,18.951 9.004,18.902 9.011,18.854C9.079,18.39 9.015,17.922 8.835,17.502C8.806,17.452 8.781,17.399 8.761,17.345ZM13.712,16C13.881,15.746 14.076,15.508 14.296,15.289C14.329,15.257 14.364,15.227 14.4,15.2C15.406,14.445 16,13.258 16,12C16,9.806 14.194,8 12,8C9.806,8 8,9.806 8,12C8,13.258 8.593,14.444 9.599,15.199L9.6,15.2C9.637,15.227 9.671,15.257 9.704,15.289L9.705,15.291C9.925,15.509 10.12,15.747 10.288,16L13.712,16ZM11.011,18C11.049,18.348 11.047,18.703 11.002,19.057C11.032,19.58 11.471,20 12,20C12.529,20 12.968,19.58 12.998,19.057C12.953,18.703 12.951,18.348 12.989,18L11.011,18ZM3,13C2.448,13 2,12.552 2,12C2,11.448 2.448,11 3,11L4,11C4.552,11 5,11.448 5,12C5,12.552 4.552,13 4,13L3,13ZM11,3C11,2.448 11.448,2 12,2C12.552,2 13,2.448 13,3L13,4C13,4.552 12.552,5 12,5C11.448,5 11,4.552 11,4L11,3ZM20,13C19.448,13 19,12.552 19,12C19,11.448 19.448,11 20,11L21,11C21.552,11 22,11.448 22,12C22,12.552 21.552,13 21,13L20,13ZM4.893,6.307C4.503,5.917 4.503,5.283 4.893,4.893C5.283,4.503 5.917,4.503 6.307,4.893L7.007,5.593C7.397,5.983 7.397,6.617 7.007,7.007C6.617,7.397 5.983,7.397 5.593,7.007L4.893,6.307ZM17.693,4.893C18.083,4.503 18.717,4.503 19.107,4.893C19.497,5.283 19.497,5.917 19.107,6.307L18.407,7.007C18.017,7.397 17.383,7.397 16.993,7.007C16.603,6.617 16.603,5.983 16.993,5.593L17.693,4.893Z"/>
    </g>
</svg>
