<?xml version="1.0" encoding="UTF-8" standalone="no"?>
<!DOCTYPE svg PUBLIC "-//W3C//DTD SVG 1.1//EN" "http://www.w3.org/Graphics/SVG/1.1/DTD/svg11.dtd">
<svg width="100%" height="100%" viewBox="0 0 96 96" version="1.1" xmlns="http://www.w3.org/2000/svg" xmlns:xlink="http://www.w3.org/1999/xlink" xml:space="preserve" xmlns:serif="http://www.serif.com/" style="fill-rule:evenodd;clip-rule:evenodd;stroke-linejoin:round;stroke-miterlimit:2;">
    <g transform="matrix(0.0156056,0,0,-0.0156056,11.0147,87.9125)">
        <path d="M4461,4926C4757,4986 4988,5028 5005,5025C5046,5018 5081,4991 5105,4947L5125,4911L5021,4388C4964,4100 4911,3852 4903,3837C4875,3781 4791,3753 4737,3782C4725,3788 4691,3814 4663,3841C4634,3867 4597,3891 4580,3895C4506,3911 4528,3931 3715,3120C2888,2294 2922,2325 2843,2345C2824,2349 2632,2534 2255,2910C1947,3217 1685,3473 1673,3479C1643,3494 1584,3493 1552,3476C1537,3468 1300,3236 1025,2961C671,2606 515,2457 492,2449C419,2425 400,2437 198,2638C0,2836 -13,2856 4,2927C9,2946 257,3201 778,3723C1598,4544 1574,4522 1650,4500C1677,4492 1817,4358 2250,3926C2848,3329 2836,3339 2913,3355C2960,3365 3975,4380 3985,4428C3996,4480 3982,4515 3925,4579C3861,4651 3849,4691 3876,4746C3887,4767 3907,4792 3921,4803C3940,4817 4093,4852 4461,4926ZM3895,2809C3912,2815 4039,2818 4182,2817C4424,2815 4440,2814 4467,2794C4482,2783 4503,2758 4512,2739C4529,2707 4530,2625 4530,1455C4530,285 4529,203 4512,171C4503,152 4482,127 4467,116C4440,96 4423,95 4182,92C3892,88 3858,94 3820,154C3800,187 3800,197 3800,1456C3800,2636 3801,2727 3817,2750C3840,2783 3859,2798 3895,2809ZM1488,2480L1764,2480C2066,2480 2079,2478 2116,2423C2134,2396 2135,2359 2135,1290C2135,250 2134,183 2117,157C2077,96 2072,95 1770,95C1516,95 1493,96 1467,114C1407,155 1410,88 1410,1296L1410,2402C1410,2438.77 1451.23,2480 1488,2480ZM306,1880C347,1892 797,1892 841,1880C860,1875 935,1862.99 935,1809C935,1669.83 938,1004 938,1004C941,96 922.234,137.761 866,110C827.484,90.986 805,90 574,90C295,90 210,66.903 210,193L210,982C210,1821 209,1810 258,1853C269,1863 291,1875 306,1880ZM2674,1604C2699,1617 2753,1620 2968,1620C3259,1620 3274,1617 3310,1557C3329,1526 3330,1502 3330,856C3330,200 3330,187 3310,154C3272,94 3238,88 2948,92C2707,95 2690,96 2663,116C2598,164 2600,137 2600,859C2600,1510 2600,1512 2622,1551C2633,1572 2657,1596 2674,1604Z"/>
    </g>
</svg>
