<?xml version="1.0" encoding="UTF-8" standalone="no"?>
<!DOCTYPE svg PUBLIC "-//W3C//DTD SVG 1.1//EN" "http://www.w3.org/Graphics/SVG/1.1/DTD/svg11.dtd">
<svg width="100%" height="100%" viewBox="0 0 96 96" version="1.1" xmlns="http://www.w3.org/2000/svg" xmlns:xlink="http://www.w3.org/1999/xlink" xml:space="preserve" xmlns:serif="http://www.serif.com/" style="fill-rule:evenodd;clip-rule:evenodd;stroke-linejoin:round;stroke-miterlimit:2;">
    <g transform="matrix(4,0,0,4,2.66454e-15,5.32907e-15)">
        <path d="M15.827,4L17,4C18.646,4 20,5.354 20,7L20,19C20,20.646 18.646,22 17,22L7,22C5.354,22 4,20.646 4,19L4,7C4,5.354 5.354,4 7,4L8.173,4C8.589,2.84 9.704,2 11,2L13,2C14.296,2 15.411,2.84 15.827,4ZM8.173,6L7,6C6.451,6 6,6.451 6,7L6,19C6,19.549 6.451,20 7,20L17,20C17.549,20 18,19.549 18,19L18,7C18,6.451 17.549,6 17,6L15.827,6C15.411,7.16 14.296,8 13,8L11,8C9.704,8 8.589,7.16 8.173,6ZM14,5C14,4.451 13.549,4 13,4L11,4C10.451,4 10,4.451 10,5C10,5.549 10.451,6 11,6L13,6C13.549,6 14,5.549 14,5ZM16,17C16,17.552 15.552,18 15,18C14.448,18 14,17.552 14,17L14,15C14,14.448 14.448,14 15,14C15.552,14 16,14.448 16,15L16,17ZM10,17C10,17.552 9.552,18 9,18C8.448,18 8,17.552 8,17L8,13C8,12.448 8.448,12 9,12C9.552,12 10,12.448 10,13L10,17ZM13,17C13,17.552 12.552,18 12,18C11.448,18 11,17.552 11,17L11,16C11,15.448 11.448,15 12,15C12.552,15 13,15.448 13,16L13,17Z"/>
    </g>
</svg>
