<?xml version="1.0" encoding="UTF-8" standalone="no"?>
<!DOCTYPE svg PUBLIC "-//W3C//DTD SVG 1.1//EN" "http://www.w3.org/Graphics/SVG/1.1/DTD/svg11.dtd">
<svg width="100%" height="100%" viewBox="0 0 80 80" version="1.1" xmlns="http://www.w3.org/2000/svg" xmlns:xlink="http://www.w3.org/1999/xlink" xml:space="preserve" xmlns:serif="http://www.serif.com/" style="fill-rule:evenodd;clip-rule:evenodd;stroke-linejoin:round;stroke-miterlimit:2;">
    <g transform="matrix(1,0,0,1,-810,-540)">
        <g id="Artboard2" transform="matrix(0.1,0,0,0.1,709.167,540)">
            <rect x="1008.33" y="0" width="800" height="800" style="fill:none;"/>
            <clipPath id="_clip1">
                <rect x="1008.33" y="0" width="800" height="800"/>
            </clipPath>
            <g clip-path="url(#_clip1)">
                <g transform="matrix(0.156493,0,0,0.156493,1007.73,-0.0737674)">
                    <path d="M271,5109C167,5089 77,5018 32,4922C10,4875 5,4851 5,4785C5,4630 -63,4707 1080,3565L2090,2555L1071,1535C244,706 49,506 30,465C-4,394 -5,266 28,195C57,132 121,66 185,32C257,-5 372,-10 455,20C513,42 549,76 1538,1064L2560,2085L3578,1069C4395,253 4605,48 4645,29C4687,9 4710,5 4790,5C4873,5 4891,9 4935,32C4997,64 5064,135 5093,198C5125,266 5123,395 5090,465C5071,506 4876,706 4049,1535L3030,2555L4040,3565C5183,4707 5115,4630 5115,4785C5115,4850 5110,4875 5089,4920C5008,5092 4805,5162 4635,5078C4609,5065 4244,4708 3578,4042L2560,3025L1543,4042C876,4708 511,5065 485,5078C451,5095 340,5123 321,5119C318,5118 295,5114 271,5109Z" style="fill:rgb(23,85,124);fill-rule:nonzero;"/>
                </g>
            </g>
        </g>
    </g>
</svg>
