<?xml version="1.0" encoding="UTF-8" standalone="no"?>
<!DOCTYPE svg PUBLIC "-//W3C//DTD SVG 1.1//EN" "http://www.w3.org/Graphics/SVG/1.1/DTD/svg11.dtd">
<svg width="100%" height="100%" viewBox="0 0 96 96" version="1.1" xmlns="http://www.w3.org/2000/svg" xmlns:xlink="http://www.w3.org/1999/xlink" xml:space="preserve" xmlns:serif="http://www.serif.com/" style="fill-rule:evenodd;clip-rule:evenodd;stroke-linejoin:round;stroke-miterlimit:2;">
    <g transform="matrix(1.35716,0,0,1.35882,-17.1438,-17.2231)">
        <path d="M47.996,53.73C36.065,65.634 24.87,76.721 24.454,76.962C23.614,77.449 22.552,77.559 21.436,77.305C20.673,77.117 20.474,77.006 19.733,76.266C19.014,75.547 18.86,75.304 18.683,74.618C18.44,73.69 18.484,72.739 18.793,71.899C18.974,71.4 21.226,69.115 42.306,48.032C30.402,36.101 19.315,24.906 19.074,24.49C18.587,23.65 18.477,22.588 18.731,21.472C18.919,20.709 19.029,20.51 19.77,19.769C20.489,19.05 20.732,18.896 21.418,18.719C22.346,18.476 23.297,18.52 24.137,18.829C24.635,19.01 26.921,21.262 48,42.338C69.079,21.261 71.365,19.009 71.863,18.829C72.703,18.52 73.654,18.475 74.582,18.719C75.268,18.896 75.511,19.05 76.23,19.769C76.971,20.51 77.081,20.709 77.269,21.472C77.534,22.621 77.369,23.804 76.816,24.667C76.494,25.162 65.518,36.217 53.698,48.036C74.774,69.115 77.026,71.401 77.207,71.899C77.516,72.739 77.56,73.69 77.317,74.618C77.14,75.304 76.986,75.547 76.267,76.266C75.526,77.007 75.327,77.117 74.564,77.305C73.414,77.57 72.231,77.405 71.369,76.852C70.874,76.53 59.817,65.552 47.996,53.73Z"/>
    </g>
</svg>
