<?xml version="1.0" encoding="UTF-8" standalone="no"?>
<!DOCTYPE svg PUBLIC "-//W3C//DTD SVG 1.1//EN" "http://www.w3.org/Graphics/SVG/1.1/DTD/svg11.dtd">
<svg width="100%" height="100%" viewBox="0 0 80 80" version="1.1" xmlns="http://www.w3.org/2000/svg" xmlns:xlink="http://www.w3.org/1999/xlink" xml:space="preserve" xmlns:serif="http://www.serif.com/" style="fill-rule:evenodd;clip-rule:evenodd;stroke-linejoin:round;stroke-miterlimit:2;">
    <g transform="matrix(1,0,0,1,-1008,0)">
        <g id="Artboard2" transform="matrix(0.1,0,0,0.1,907.167,0)">
            <rect x="1008.33" y="0" width="800" height="800" style="fill:none;"/>
            <clipPath id="_clip1">
                <rect x="1008.33" y="0" width="800" height="800"/>
            </clipPath>
            <g clip-path="url(#_clip1)">
                <g transform="matrix(12.5003,0,0,0.320296,2440.44,583.165)">
                    <path d="M-50.567,286.748L-50.567,442.854L-114.565,442.854L-114.565,286.748L-50.567,286.748ZM-54.567,91.616L-54.567,247.722L-110.565,247.722L-110.565,91.616L-54.567,91.616ZM-58.567,-923.072L-58.567,-766.966L-106.565,-766.966L-106.565,-923.072L-58.567,-923.072ZM-56.567,-962.089C-56.578,-962.089 -56.589,-962.092 -56.6,-962.099L-108.533,-962.099C-108.543,-962.092 -108.554,-962.089 -108.565,-962.089L-108.565,-1126.17L-83.407,-1579.35C-82.873,-1588.99 -82.259,-1588.99 -81.726,-1579.35L-56.567,-1126.17L-56.567,-962.089ZM-65.644,-1118.2L-82.566,-1422.51L-99.488,-1118.2L-65.644,-1118.2ZM-101.566,-727.94L-101.566,52.589L-105.565,52.589L-105.565,-727.94L-101.566,-727.94ZM-93.401,-727.94L-93.401,52.589L-97.401,52.589L-97.401,-727.94L-93.401,-727.94ZM-85.229,-727.94L-85.229,52.589L-89.228,52.589L-89.228,-727.94L-85.229,-727.94ZM-76.405,-727.94L-76.405,52.589L-80.405,52.589L-80.405,-727.94L-76.405,-727.94ZM-67.582,-727.94L-67.582,52.589L-71.582,52.589L-71.582,-727.94L-67.582,-727.94ZM-59.567,-727.94L-59.567,52.589L-63.567,52.589L-63.567,-727.94L-59.567,-727.94Z" style="fill:rgb(19,85,124);"/>
                </g>
            </g>
        </g>
    </g>
</svg>
