<?xml version="1.0" encoding="UTF-8" standalone="no"?>
<!DOCTYPE svg PUBLIC "-//W3C//DTD SVG 1.1//EN" "http://www.w3.org/Graphics/SVG/1.1/DTD/svg11.dtd">
<svg width="100%" height="100%" viewBox="0 0 96 96" version="1.1" xmlns="http://www.w3.org/2000/svg" xmlns:xlink="http://www.w3.org/1999/xlink" xml:space="preserve" xmlns:serif="http://www.serif.com/" style="fill-rule:evenodd;clip-rule:evenodd;stroke-linejoin:round;stroke-miterlimit:2;">
    <g transform="matrix(3.99984,0,0,3.99984,-3.99789,0.0225134)">
        <path d="M7,9.999C7,10.551 6.553,11 6.001,11C5.449,11 5,10.553 5,10.001L5,9.994C5,5.606 8.611,1.994 13,1.994C17.389,1.994 21,5.606 21,9.994C21,11.446 20.605,12.871 19.857,14.115C19.84,14.144 19.82,14.173 19.8,14.2C19.186,15.018 18.462,15.747 17.647,16.365C16.89,17.088 16.305,17.973 15.936,18.953C15.921,18.992 15.904,19.031 15.884,19.068C14.932,20.866 13.057,21.995 11.023,21.995C9.768,21.995 8.55,21.566 7.573,20.779C7.143,20.433 7.075,19.803 7.421,19.373C7.767,18.943 8.397,18.875 8.827,19.221C9.449,19.722 10.224,19.995 11.023,19.995C12.298,19.995 13.474,19.298 14.089,18.183C14.573,16.927 15.334,15.796 16.314,14.872C16.342,14.846 16.37,14.822 16.4,14.8C17.068,14.299 17.663,13.707 18.169,13.041C18.713,12.118 19,11.066 19,9.994C19,6.703 16.292,3.994 13,3.994C9.708,3.994 7,6.703 7,9.994L7,9.999ZM11,9.988C11.007,10.54 10.564,10.993 10.012,11C9.46,11.007 9.007,10.564 9,10.012C9,9.996 9,9.98 9,9.964C9,7.77 10.805,5.964 13,5.964C15.194,5.964 17,7.77 17,9.964C17,11.102 16.515,12.187 15.667,12.945C15.255,13.313 14.623,13.278 14.255,12.867C13.887,12.455 13.922,11.823 14.333,11.455C14.757,11.075 15,10.533 15,9.964C15,8.867 14.097,7.964 13,7.964C11.903,7.964 11,8.867 11,9.964C11,9.972 11,9.98 11,9.988Z"/>
    </g>
</svg>
