<?xml version="1.0" encoding="UTF-8" standalone="no"?>
<!DOCTYPE svg PUBLIC "-//W3C//DTD SVG 1.1//EN" "http://www.w3.org/Graphics/SVG/1.1/DTD/svg11.dtd">
<svg width="100%" height="100%" viewBox="0 0 96 96" version="1.1" xmlns="http://www.w3.org/2000/svg" xmlns:xlink="http://www.w3.org/1999/xlink" xml:space="preserve" xmlns:serif="http://www.serif.com/" style="fill-rule:evenodd;clip-rule:evenodd;stroke-linejoin:round;stroke-miterlimit:2;">
    <g transform="matrix(6.39223,0,0,2.31955,-122.541,-75.1918)">
        <path d="M32.953,64.535C32.953,65.843 32.567,66.906 32.093,66.906L21.298,66.906C20.823,66.906 20.438,65.843 20.438,64.535C20.438,63.226 20.823,62.164 21.298,62.164L32.093,62.164C32.567,62.164 32.953,63.226 32.953,64.535ZM32.953,41.686C32.953,42.994 32.567,44.057 32.093,44.057L21.298,44.057C20.823,44.057 20.438,42.994 20.438,41.686C20.438,40.377 20.823,39.314 21.298,39.314L32.093,39.314C32.567,39.314 32.953,40.377 32.953,41.686ZM32.953,53.099C32.953,54.408 32.567,55.47 32.093,55.47L21.298,55.47C20.823,55.47 20.438,54.408 20.438,53.099C20.438,51.791 20.823,50.728 21.298,50.728L32.093,50.728C32.567,50.728 32.953,51.791 32.953,53.099Z"/>
    </g>
</svg>
