<?xml version="1.0" encoding="UTF-8" standalone="no"?>
<!DOCTYPE svg PUBLIC "-//W3C//DTD SVG 1.1//EN" "http://www.w3.org/Graphics/SVG/1.1/DTD/svg11.dtd">
<svg width="100%" height="100%" viewBox="0 0 96 96" version="1.1" xmlns="http://www.w3.org/2000/svg" xmlns:xlink="http://www.w3.org/1999/xlink" xml:space="preserve" xmlns:serif="http://www.serif.com/" style="fill-rule:evenodd;clip-rule:evenodd;stroke-linejoin:round;stroke-miterlimit:2;">
    <g transform="matrix(3.99814,0,0,3.99814,0.0556886,0.0451765)">
        <path d="M20.135,13.351L12.704,20.711C12.314,21.096 11.686,21.096 11.296,20.711C11.296,20.711 3.799,13.285 3.799,13.285C2.641,12.156 1.987,10.606 1.987,8.989C1.987,5.697 4.696,2.989 7.987,2.989C9.483,2.989 10.912,3.548 12.004,4.532C13.093,3.562 14.512,3.011 15.996,3.011C19.288,3.011 21.996,5.719 21.996,9.011C21.996,10.62 21.349,12.164 20.201,13.291C20.179,13.312 20.157,13.332 20.135,13.351ZM10.614,5.972C9.893,5.344 8.961,4.989 7.987,4.989C5.793,4.989 3.987,6.794 3.987,8.989C3.987,10.068 4.424,11.103 5.197,11.855C5.2,11.857 5.202,11.859 5.204,11.861C5.204,11.861 12,18.593 12,18.593L13.094,17.509L11.793,16.207C11.403,15.817 11.403,15.183 11.793,14.793C12.183,14.403 12.817,14.403 13.207,14.793L14.515,16.101L15.606,15.021L14.293,13.707C13.903,13.317 13.903,12.683 14.293,12.293C14.683,11.903 15.317,11.903 15.707,12.293L17.028,13.613L18.119,12.533L16.543,10.957C15.696,10.111 14.304,10.111 13.457,10.957L12.457,11.957C11.377,13.037 9.623,13.037 8.543,11.957L8,11.414C7.224,10.638 7.224,9.362 8,8.586L10.614,5.972ZM19.447,11.033C19.804,10.425 19.996,9.728 19.996,9.011C19.996,6.817 18.191,5.011 15.996,5.011C14.74,5.011 13.554,5.603 12.799,6.607C12.752,6.67 12.698,6.726 12.639,6.775L9.414,10L9.957,10.543C10.257,10.843 10.743,10.843 11.043,10.543L12.043,9.543C13.665,7.921 16.335,7.921 17.957,9.543L19.447,11.033Z"/>
    </g>
</svg>
