<?xml version="1.0" encoding="UTF-8" standalone="no"?>
<!DOCTYPE svg PUBLIC "-//W3C//DTD SVG 1.1//EN" "http://www.w3.org/Graphics/SVG/1.1/DTD/svg11.dtd">
<svg width="100%" height="100%" viewBox="0 0 96 96" version="1.1" xmlns="http://www.w3.org/2000/svg" xmlns:xlink="http://www.w3.org/1999/xlink" xml:space="preserve" xmlns:serif="http://www.serif.com/" style="fill-rule:evenodd;clip-rule:evenodd;stroke-linejoin:round;stroke-miterlimit:2;">
    <g transform="matrix(0.0156365,-5.03764e-21,5.03507e-21,-0.0156545,7.97794,88.09)">
        <path d="M2443,5105C2313,5069 2349,5102 1197,3952C599,3354 96,2845 80,2821C-44,2636 -19,2388 139,2229C231,2138 348,2090 482,2090L550,2090L550,1290C550,749 554,474 561,438C599,256 746,91 928,28C994,5 999,5 1482,5C1958,5 1969,5 1996,26C2011,37 2033,59 2044,74C2065,101 2065,114 2070,769L2075,1437L2105,1486C2143,1547 2220,1596 2294,1605C2322,1609 2462,1610 2605,1608L2865,1605L2918,1576C2968,1548 3000,1515 3031,1460C3042,1439 3046,1316 3050,768C3055,114 3055,101 3076,74C3087,59 3109,37 3124,26C3151,5 3162,5 3638,5C4121,5 4126,5 4192,28C4374,91 4521,256 4559,438C4566,474 4570,749 4570,1290L4570,2090L4638,2090C4878,2090 5072,2253 5112,2488C5127,2580 5112,2678 5069,2770C5040,2830 4953,2920 3951,3923C3354,4521 2844,5024 2818,5041C2792,5058 2747,5081 2718,5092C2648,5119 2514,5125 2443,5105Z" style="fill-rule:nonzero;"/>
    </g>
</svg>
