<?xml version="1.0" encoding="UTF-8" standalone="no"?>
<!DOCTYPE svg PUBLIC "-//W3C//DTD SVG 1.1//EN" "http://www.w3.org/Graphics/SVG/1.1/DTD/svg11.dtd">
<svg width="100%" height="100%" viewBox="0 0 96 96" version="1.1" xmlns="http://www.w3.org/2000/svg" xmlns:xlink="http://www.w3.org/1999/xlink" xml:space="preserve" xmlns:serif="http://www.serif.com/" style="fill-rule:evenodd;clip-rule:evenodd;stroke-linejoin:round;stroke-miterlimit:2;">
    <g transform="matrix(0.0156235,0,0,-0.0156235,14.6511,98.3054)">
        <path d="M1910.39,5769.61C2365.39,5816.61 2827.39,5704.61 3199.39,5457.61C3689.39,5130.61 3999.39,4638.61 4085.39,4050.61C4110.39,3876.61 4100.39,3570.61 4064.39,3400.61C3984.39,3019.61 3811.39,2687.61 3558.39,2425.61L3470.39,2334.61L3467.39,1805.61C3463.39,1218.61 3464.39,1230.61 3394.39,1084.61C3322.39,934.608 3195.39,807.608 3044.39,735.608C2893.39,662.608 2948.39,666.608 2006.39,662.608L1159.39,659.608L1109.39,709.608L1109.39,1263.61L1082.39,1257.61C1066.39,1254.61 942.392,1235.61 805.392,1214.61C586.392,1181.61 548.392,1178.61 494.392,1187.61C314.392,1218.61 168.392,1367.61 139.392,1550.61C134.392,1586.61 129.392,1774.61 129.392,1968.61L129.392,2320.61L12.392,2320.61C-90.608,2320.61 -112.608,2323.61 -156.608,2344.61C-215.608,2371.61 -272.608,2434.61 -288.608,2489.61C-308.608,2552.61 -302.608,2648.61 -277.608,2710.61C-264.608,2740.61 -167.608,2922.61 -62.608,3114.61L129.392,3463.61L129.392,3634.61C129.392,4153.61 212.392,4480.61 431.392,4834.61C746.392,5343.61 1323.39,5707.61 1910.39,5769.61ZM1307.39,4786.61C1268.39,4806.61 1200.39,4803.61 1161.39,4780.61C1115.39,4752.61 1085.39,4683.61 1094.39,4627.61C1100.39,4594.61 1115.39,4571.61 1168.39,4517.61C1245.39,4437.61 1273.39,4420.61 1329.39,4420.61C1428.39,4420.61 1495.39,4504.61 1474.39,4602.61C1466.39,4638.61 1354.39,4762.61 1307.39,4786.61ZM3107.39,4780.61C3065.39,4806.61 2994.39,4806.61 2954.39,4781.61C2897.39,4746.61 2801.39,4636.61 2794.39,4597.61C2776.39,4500.61 2841.39,4420.61 2939.39,4420.61C2996.39,4420.61 3025.39,4438.61 3101.39,4518.61C3152.39,4572.61 3168.39,4597.61 3174.39,4628.61C3183.39,4683.61 3152.39,4752.61 3107.39,4780.61ZM2249.39,4549.61C2095.39,4574.61 1952.39,4551.61 1799.39,4477.61C1730.39,4444.61 1697.39,4419.61 1623.39,4345.61C1522.39,4245.61 1471.39,4165.61 1432.39,4042.61C1346.39,3775.61 1436.39,3454.61 1650.39,3267.61L1701.39,3222.61L1728.39,3004.61C1750.39,2827.61 1760.39,2774.61 1781.39,2728.61C1818.39,2648.61 1888.39,2577.61 1968.39,2537.61C2029.39,2507.61 2041.39,2505.61 2134.39,2505.61C2221.39,2505.61 2241.39,2508.61 2291.39,2532.61C2354.39,2561.61 2430.39,2627.61 2465.39,2681.61C2503.39,2742.61 2518.39,2805.61 2543.39,3016.61L2568.39,3216.61L2647.39,3296.61C2791.39,3441.61 2858.39,3591.61 2867.39,3790.61C2871.39,3886.61 2868.39,3920.61 2850.39,3990.61C2778.39,4281.61 2540.39,4502.61 2249.39,4549.61ZM2034.39,4246.61C2210.39,4289.61 2401.39,4213.61 2499.39,4060.61C2627.39,3861.61 2573.39,3592.61 2380.39,3461.61C2310.39,3413.61 2291.39,3389.61 2282.39,3338.61L2276.39,3300.61L1989.39,3300.61L1989.39,3328.61C1989.39,3370.61 1957.39,3413.61 1891.39,3459.61C1858.39,3482.61 1817.39,3519.61 1800.39,3541.61C1595.39,3795.61 1720.39,4170.61 2034.39,4246.61ZM2035.39,2948.61L2030.39,3000.61L2241.39,3000.61L2234.39,2948.61C2223.39,2856.61 2218.39,2841.61 2192.39,2820.61C2178.39,2809.61 2152.39,2800.61 2135.39,2800.61C2072.39,2800.61 2047.39,2838.61 2035.39,2948.61ZM1119.39,3961.61C1092.39,3976.61 1063.39,3980.61 989.392,3980.61C840.392,3980.61 784.392,3939.61 784.392,3830.61C784.392,3721.61 840.392,3680.61 989.392,3680.61C1138.39,3680.61 1194.39,3721.61 1194.39,3830.61C1194.39,3897.61 1174.39,3932.61 1119.39,3961.61ZM3405.39,3964.61C3356.39,3987.61 3197.39,3986.61 3149.39,3962.61C3072.39,3924.61 3044.39,3820.61 3092.39,3749.61C3127.39,3696.61 3169.39,3680.61 3277.39,3680.61C3384.39,3680.61 3427.39,3695.61 3462.39,3744.61C3478.39,3767.61 3484.39,3789.61 3484.39,3830.61C3484.39,3895.61 3458.39,3939.61 3405.39,3964.61ZM2199.39,5162.61C2180.39,5172.61 2151.39,5180.61 2134.39,5180.61C2091.39,5180.61 2038.39,5150.61 2012.39,5111.61C1991.39,5081.61 1989.39,5065.61 1989.39,4966.61C1989.39,4844.61 1999.39,4816.61 2055.39,4779.61C2094.39,4754.61 2174.39,4754.61 2213.39,4779.61C2269.39,4816.61 2279.39,4844.61 2279.39,4966.61C2279.39,5065.61 2277.39,5081.61 2256.39,5111.61C2244.39,5130.61 2218.39,5153.61 2199.39,5162.61Z"/>
    </g>
</svg>
