<?xml version="1.0" encoding="UTF-8" standalone="no"?>
<!DOCTYPE svg PUBLIC "-//W3C//DTD SVG 1.1//EN" "http://www.w3.org/Graphics/SVG/1.1/DTD/svg11.dtd">
<svg width="100%" height="100%" viewBox="0 0 80 80" version="1.1" xmlns="http://www.w3.org/2000/svg" xmlns:xlink="http://www.w3.org/1999/xlink" xml:space="preserve" xmlns:serif="http://www.serif.com/" style="fill-rule:evenodd;clip-rule:evenodd;stroke-linejoin:round;stroke-miterlimit:2;">
    <g transform="matrix(1,0,0,1,-810,-270)">
        <g id="Artboard2" transform="matrix(0.1,0,0,0.1,709.167,270)">
            <rect x="1008.33" y="0" width="800" height="800" style="fill:none;"/>
            <clipPath id="_clip1">
                <rect x="1008.33" y="0" width="800" height="800"/>
            </clipPath>
            <g clip-path="url(#_clip1)">
                <g transform="matrix(0.156235,0,0,-0.156235,1008.38,799.844)">
                    <path d="M2571,5109C1984,5047 1407,4683 1092,4174C873,3820 790,3493 790,2974L790,2803L598,2454C493,2262 396,2080 383,2050C358,1988 352,1892 372,1829C388,1774 445,1711 504,1684C548,1663 570,1660 673,1660L790,1660L790,1308C790,1114 795,926 800,890C829,707 975,558 1155,527C1209,518 1247,521 1466,554C1603,575 1727,594 1743,597L1770,603L1770,49L1820,-1L2667,2C3609,6 3554,2 3705,75C3856,147 3983,274 4055,424C4125,570 4124,558 4128,1145L4131,1674L4219,1765C4472,2027 4645,2359 4725,2740C4761,2910 4771,3216 4746,3390C4660,3978 4350,4470 3860,4797C3488,5044 3026,5156 2571,5109ZM2860,4502C2879,4493 2905,4470 2917,4451C2938,4421 2940,4405 2940,4306C2940,4184 2930,4156 2874,4119C2835,4094 2755,4094 2716,4119C2660,4156 2650,4184 2650,4306C2650,4405 2652,4421 2673,4451C2699,4490 2752,4520 2795,4520C2812,4520 2841,4512 2860,4502ZM1968,4126C2015,4102 2127,3978 2135,3942C2156,3844 2089,3760 1990,3760C1934,3760 1906,3777 1829,3857C1776,3911 1761,3934 1755,3967C1746,4023 1776,4092 1822,4120C1861,4143 1929,4146 1968,4126ZM3768,4120C3813,4092 3844,4023 3835,3968C3829,3937 3813,3912 3762,3858C3686,3778 3657,3760 3600,3760C3502,3760 3437,3840 3455,3937C3462,3976 3558,4086 3615,4121C3655,4146 3726,4146 3768,4120ZM2910,3889C3201,3842 3439,3621 3511,3330C3529,3260 3532,3226 3528,3130C3519,2931 3452,2781 3308,2636L3229,2556L3204,2356C3179,2145 3164,2082 3126,2021C3091,1967 3015,1901 2952,1872C2902,1848 2882,1845 2795,1845C2702,1845 2690,1847 2629,1877C2549,1917 2479,1988 2442,2068C2421,2114 2411,2167 2389,2344L2362,2562L2311,2607C2097,2794 2007,3115 2093,3382C2132,3505 2183,3585 2284,3685C2358,3759 2391,3784 2460,3817C2613,3891 2756,3914 2910,3889ZM1780,3301C1835,3272 1855,3237 1855,3170C1855,3061 1799,3020 1650,3020C1501,3020 1445,3061 1445,3170C1445,3279 1501,3320 1650,3320C1724,3320 1753,3316 1780,3301ZM4066,3304C4119,3279 4145,3235 4145,3170C4145,3129 4139,3107 4123,3084C4088,3035 4045,3020 3938,3020C3830,3020 3788,3036 3753,3089C3705,3160 3733,3264 3810,3302C3858,3326 4017,3327 4066,3304Z" style="fill:rgb(23,85,124);fill-rule:nonzero;"/>
                    <path d="M2695,3586C2381,3510 2256,3135 2461,2881C2478,2859 2519,2822 2552,2799C2618,2753 2650,2710 2650,2668L2650,2640L2937,2640L2943,2678C2952,2729 2971,2753 3041,2801C3234,2932 3288,3201 3160,3400C3062,3553 2871,3629 2695,3586Z" style="fill:rgb(23,85,124);fill-rule:nonzero;"/>
                    <path d="M2696,2288C2708,2178 2733,2140 2796,2140C2813,2140 2839,2149 2853,2160C2879,2181 2884,2196 2895,2288L2902,2340L2691,2340L2696,2288Z" style="fill:rgb(23,85,124);fill-rule:nonzero;"/>
                </g>
            </g>
        </g>
    </g>
</svg>
