<?xml version="1.0" encoding="UTF-8" standalone="no"?>
<!DOCTYPE svg PUBLIC "-//W3C//DTD SVG 1.1//EN" "http://www.w3.org/Graphics/SVG/1.1/DTD/svg11.dtd">
<svg width="100%" height="100%" viewBox="0 0 80 80" version="1.1" xmlns="http://www.w3.org/2000/svg" xmlns:xlink="http://www.w3.org/1999/xlink" xml:space="preserve" xmlns:serif="http://www.serif.com/" style="fill-rule:evenodd;clip-rule:evenodd;stroke-linejoin:round;stroke-miterlimit:2;">
    <g transform="matrix(1,0,0,1,-810,-90)">
        <g id="Artboard2" transform="matrix(0.1,0,0,0.1,709.167,90)">
            <rect x="1008.33" y="0" width="800" height="800" style="fill:none;"/>
            <clipPath id="_clip1">
                <rect x="1008.33" y="0" width="800" height="800"/>
            </clipPath>
            <g clip-path="url(#_clip1)">
                <g transform="matrix(0.156056,0,0,-0.156056,1008.55,799.124)">
                    <path d="M4461,4926C4093,4852 3940,4817 3921,4803C3907,4792 3887,4767 3876,4746C3849,4691 3861,4651 3925,4579C3982,4515 3996,4480 3985,4428C3975,4380 2960,3365 2913,3355C2836,3339 2848,3329 2250,3926C1817,4358 1677,4492 1650,4500C1574,4522 1598,4544 778,3723C257,3201 9,2946 4,2927C-13,2856 0,2836 198,2638C400,2437 419,2425 492,2449C515,2457 671,2606 1025,2961C1300,3236 1537,3468 1552,3476C1584,3493 1643,3494 1673,3479C1685,3473 1947,3217 2255,2910C2632,2534 2824,2349 2843,2345C2922,2325 2888,2294 3715,3120C4528,3931 4506,3911 4580,3895C4597,3891 4634,3867 4663,3841C4691,3814 4725,3788 4737,3782C4791,3753 4875,3781 4903,3837C4911,3852 4964,4100 5021,4388L5125,4911L5105,4947C5081,4991 5046,5018 5005,5025C4988,5028 4757,4986 4461,4926Z" style="fill:rgb(23,85,124);fill-rule:nonzero;"/>
                    <path d="M3895,2809C3859,2798 3840,2783 3817,2750C3801,2727 3800,2636 3800,1456C3800,197 3800,187 3820,154C3858,94 3892,88 4182,92C4423,95 4440,96 4467,116C4482,127 4503,152 4512,171C4529,203 4530,285 4530,1455C4530,2625 4529,2707 4512,2739C4503,2758 4482,2783 4467,2794C4440,2814 4424,2815 4182,2817C4039,2818 3912,2815 3895,2809Z" style="fill:rgb(23,85,124);fill-rule:nonzero;"/>
                    <path d="M1488,2480L1410,2402L1410,1296C1410,88 1407,155 1467,114C1493,96 1516,95 1770,95C2072,95 2077,96 2117,157C2134,183 2135,250 2135,1290C2135,2359 2134,2396 2116,2423C2079,2478 2066,2480 1764,2480L1488,2480Z" style="fill:rgb(23,85,124);fill-rule:nonzero;"/>
                    <path d="M306,1880C291,1875 269,1863 258,1853C209,1810 210,1821 210,982L210,193L233,159C276,94 295,90 574,90C805,90 827,92 866,110C945,149 941,96 938,1004L935,1809L906,1839C889,1856 860,1875 841,1880C797,1892 347,1892 306,1880Z" style="fill:rgb(23,85,124);fill-rule:nonzero;"/>
                    <path d="M2674,1604C2657,1596 2633,1572 2622,1551C2600,1512 2600,1510 2600,859C2600,137 2598,164 2663,116C2690,96 2707,95 2948,92C3238,88 3272,94 3310,154C3330,187 3330,200 3330,856C3330,1502 3329,1526 3310,1557C3274,1617 3259,1620 2968,1620C2753,1620 2699,1617 2674,1604Z" style="fill:rgb(23,85,124);fill-rule:nonzero;"/>
                </g>
            </g>
        </g>
    </g>
</svg>
