<?xml version="1.0" encoding="UTF-8" standalone="no"?>
<!DOCTYPE svg PUBLIC "-//W3C//DTD SVG 1.1//EN" "http://www.w3.org/Graphics/SVG/1.1/DTD/svg11.dtd">
<svg width="100%" height="100%" viewBox="0 0 96 96" version="1.1" xmlns="http://www.w3.org/2000/svg" xmlns:xlink="http://www.w3.org/1999/xlink" xml:space="preserve" xmlns:serif="http://www.serif.com/" style="fill-rule:evenodd;clip-rule:evenodd;stroke-linejoin:round;stroke-miterlimit:2;">
    <g transform="matrix(3.80952,0,0,3.80952,0.380952,2.28571)">
        <path d="M7.05,15.835C4.172,15.169 2,12.568 2,9.5L2,6C2,4.354 3.354,3 5,3C5,2.448 5.448,2 6,2C6.552,2 7,2.448 7,3L7,5C7,5.552 6.552,6 6,6C5.448,6 5,5.552 5,5C4.451,5 4,5.451 4,6L4,9.5C4,11.969 6.031,14 8.5,14C10.969,14 13,11.969 13,9.5L13,6C13,5.451 12.549,5 12,5C12,5.552 11.552,6 11,6C10.448,6 10,5.552 10,5L10,3C10,2.448 10.448,2 11,2C11.552,2 12,2.448 12,3C13.646,3 15,4.354 15,6L15,9.5C15,12.865 12.387,15.667 9.096,15.972C9.554,18.257 11.589,20 14,20C16.743,20 19,17.743 19,15L19,12.827C17.84,12.411 17,11.296 17,10C17,8.354 18.354,7 20,7C21.646,7 23,8.354 23,10C23,11.296 22.16,12.411 21,12.827L21,15C21,18.84 17.84,22 14,22C10.442,22 7.468,19.288 7.05,15.835ZM20,11C20.549,11 21,10.549 21,10C21,9.451 20.549,9 20,9C19.451,9 19,9.451 19,10C19,10.549 19.451,11 20,11Z"/>
    </g>
</svg>
